<?xml version="1.0" encoding="UTF-8"?>
<svg id="Capa_2" data-name="Capa 2" xmlns="http://www.w3.org/2000/svg" viewBox="0 0 1077.09 300.27">
  <defs>
    <style>
      .cls-1 {
        fill: #f8f6f3;
      }
    </style>
  </defs>
  <g id="Capa_1-2" data-name="Capa 1">
    <g>
      <g>
        <path class="cls-1" d="M306.66,8.65c-12.42,0-22.53,10.11-22.53,22.53v186.71c0,12.42,10.11,22.53,22.53,22.53s22.53-10.11,22.53-22.53V31.18c0-12.42-10.11-22.53-22.53-22.53Z"/>
        <path class="cls-1" d="M375.15,5.07c-14.72,0-26.7,11.98-26.7,26.7s11.98,26.7,26.7,26.7,26.7-11.98,26.7-26.7-11.98-26.7-26.7-26.7Z"/>
        <path class="cls-1" d="M375.15,70.88c-12.42,0-22.53,10.11-22.53,22.53v124.47c0,12.42,10.11,22.53,22.53,22.53s22.53-10.11,22.53-22.53v-124.47c0-12.42-10.11-22.53-22.53-22.53Z"/>
        <path class="cls-1" d="M549.55,74.16h-49.43c-47.82,0-83.88,35.03-83.88,81.49s28.32,81.49,76.13,81.49h2.3c12.11,0,21.94-9.82,21.94-21.94h0c0-12.11-9.82-21.94-21.94-21.94h-2.3c-21.76,0-31.07-16.52-31.07-37.62s16.68-37.62,38.81-37.62h23.33v121c0,9.59-7.78,17.37-17.37,17.37h-52.66c-11.42,0-21.41,8.45-22.48,19.82-1.23,13.04,9.04,24.05,21.84,24.05h54.49c33.82,0,61.25-27.42,61.25-61.25V93.12c0-10.43-8.53-18.96-18.96-18.96Z"/>
        <path class="cls-1" d="M667.76,74.16h-56.88c-10.28,0-18.96,8.68-18.96,18.96v124.77c0,12.42,10.11,22.53,22.53,22.53s22.53-10.11,22.53-22.53v-99.86h29.58c15.76,0,27.2,11.44,27.2,27.2v72.66c0,12.42,10.11,22.53,22.53,22.53s22.53-10.11,22.53-22.53v-72.66c0-40.52-30.55-71.07-71.07-71.07Z"/>
        <path class="cls-1" d="M837.49,74.16h-56.88c-10.28,0-18.96,8.68-18.96,18.96v124.77c0,12.42,10.11,22.53,22.53,22.53s22.53-10.11,22.53-22.53v-99.86h29.58c15.76,0,27.2,11.44,27.2,27.2v72.66c0,12.42,10.11,22.53,22.53,22.53s22.53-10.11,22.53-22.53v-72.66c0-40.52-30.55-71.07-71.07-71.07Z"/>
        <path class="cls-1" d="M1006.02,74.16h-47.05c-12.1,0-21.94,9.84-21.94,21.94s9.84,21.93,21.94,21.93h45.86c15.76,0,27.2,11.44,27.2,27.2v48.04h-52.81c-6.06,0-9.33-4.96-9.33-9.63s3.49-9.63,9.33-9.63h25.01c11.6,0,21.04-9.44,21.04-21.04s-9.44-21.04-21.04-21.04h-27.1c-29.82,0-52.31,22.62-52.31,52.61s22.49,52.61,52.31,52.61h81c10.28,0,18.96-8.68,18.96-18.96v-72.96c0-40.52-30.55-71.07-71.07-71.07Z"/>
      </g>
      <g id="g2-1-6-23">
        <g id="g3-3-37">
          <path id="path4298-4-9-8-6-9-4-4-8-9-3-7-4-3-8-2-2-92-0-8-1-4-8-3-7-8-7-1-4-3-7-6-5-2-8-3-6-4-3-4-5-4-0" class="cls-1" d="M134.51,104.24c-89.45,0-111.97,41.03-132.32,93.41-13.88,35.73,41.9,69.46,70.05,27.24,23.35-35.03,38.92-50.59,62.27-50.59s38.92,15.57,62.27,50.59c28.15,42.22,83.93,8.48,70.05-27.25-20.35-52.38-42.87-93.41-132.32-93.41Z"/>
          <path id="path4354-9-3-6-4-0-1-1-3-9-4-6-3-80-4-4-5-4-3-3-8-7-9-8-6-4-0-3-5-4-8-1-1-6-0-3-8-9-3-3-0-01" class="cls-1" d="M134.5,0C61.55,0,33.64,74.3,62.35,84.45c29.08,10.28,33.24-26.08,72.16-26.08s43.07,36.36,72.16,26.08c28.71-10.15.8-84.45-72.16-84.45Z"/>
        </g>
      </g>
    </g>
  </g>
</svg>