<?xml version="1.0" encoding="UTF-8"?>
<svg id="Capa_2" data-name="Capa 2" xmlns="http://www.w3.org/2000/svg" viewBox="0 0 906.34 1080">
  <defs>
    <style>
      .cls-1 {
        fill: #f8f6f3;
      }
    </style>
  </defs>
  <g id="Capa_1-2" data-name="Capa 1">
    <g>
      <path class="cls-1" d="M186.67,433.24c-1.61,9.05-3.04,18.14-3.47,27.41-1.02,22.26,1.35,44.64,6.77,66.25,24.3,96.68,115.86,178.25,211.61,201.22,2.35.56,4.71,1.08,7.08,1.55,28.68,5.73,59.2,4.88,86.28-6.17,31.49-12.86,50.91-37.27,74.82-59.86,19.11-18.07,43.08-32.48,67.65-41.71,50.02-18.78,106.73-16.72,155.26,5.63,24.73,11.39,46.27,27.75,64.81,47.59,88.36,94.57,48.85,249.87-54.42,313.25-22.69,14.11-48.73,30.75-73.9,42.37-164.17,81.34-360.74,57.9-508.34-40.79C91.43,901.03,9.63,746.14.87,590.26c-4.24-75.41,6.86-132.11,37.66-201.49,16.44-37.04,49.74-76.1,94.15-74.41,40.36,1.54,60.23,38.85,59.73,75.56-.2,14.77-3.2,29-5.75,43.31Z"/>
      <path id="path4354-9-3-6-4-0-1-1-3-9-4-6-3-80-4-4-5-4-3-3-8-7-9-8-6-4-0-3-5-4-8-1-1-6-0-3-8-9-3-3-0-01" class="cls-1" d="M513.93,0C324.48,0,189.47,106.67,171.1,191.44c-9.62,44.37,33.21,82.39,76.21,67.81,56.42-19.14,105.78-70.13,207.44-70.13,163.54,0,187.06,182.58,346.74,129.39,22.58-7.52,42.73-21.69,55.87-41.53C923.06,177.77,798.51,0,513.93,0Z"/>
    </g>
  </g>
</svg>